<?xml version="1.0" encoding="UTF-8" standalone="no"?>
<!-- Created with Inkscape (http://www.inkscape.org/) -->

<svg
   width="39.010506mm"
   height="38.950451mm"
   viewBox="0 0 39.010506 38.950451"
   version="1.1"
   id="svg1"
   inkscape:version="1.3.2 (091e20e, 2023-11-25, custom)"
   sodipodi:docname="drawing.svg"
   xml:space="preserve"
   xmlns:inkscape="http://www.inkscape.org/namespaces/inkscape"
   xmlns:sodipodi="http://sodipodi.sourceforge.net/DTD/sodipodi-0.dtd"
   xmlns="http://www.w3.org/2000/svg"
   xmlns:svg="http://www.w3.org/2000/svg"><sodipodi:namedview
     id="namedview1"
     pagecolor="#ffffff"
     bordercolor="#000000"
     borderopacity="0.25"
     inkscape:showpageshadow="2"
     inkscape:pageopacity="0.0"
     inkscape:pagecheckerboard="0"
     inkscape:deskcolor="#d1d1d1"
     inkscape:document-units="mm"
     inkscape:zoom="90.509668"
     inkscape:cx="352.57559"
     inkscape:cy="902.72677"
     inkscape:window-width="1920"
     inkscape:window-height="991"
     inkscape:window-x="2391"
     inkscape:window-y="95"
     inkscape:window-maximized="1"
     inkscape:current-layer="layer1" /><defs
     id="defs1"><linearGradient
       id="swatch15"
       inkscape:swatch="solid"><stop
         style="stop-color:#ebd23c;stop-opacity:1;"
         offset="0"
         id="stop15" /></linearGradient></defs><g
     inkscape:label="Layer 1"
     inkscape:groupmode="layer"
     id="layer1"
     transform="translate(-81.628359,-228.58276)"><ellipse
       style="fill:#010000;fill-opacity:1;stroke:none;stroke-width:1.43706;stroke-linecap:round;stroke-linejoin:round;stroke-opacity:1"
       id="path4"
       cx="101.13361"
       cy="248.05798"
       rx="19.505251"
       ry="19.475225"
       inkscape:export-filename="logo.png"
       inkscape:export-xdpi="201.84306"
       inkscape:export-ydpi="201.84306" /><path
       style="fill:#fffeff;fill-opacity:1;stroke:#fefeff;stroke-width:1.22639;stroke-linecap:round;stroke-linejoin:round;stroke-opacity:1"
       d="m 93.238011,252.076 c -1.117665,0.30948 -2.23533,0.1036 -3.352995,0.0822 -0.628608,-0.38445 -0.536779,-0.95976 -0.348716,-1.56054 3.637412,-4.58999 7.769695,-8.84326 11.81597,-13.15506 0.10462,0.0419 0.0396,-0.18544 0.20087,-0.073 2.02492,1.41131 8.68505,9.25997 12.17838,13.502 -0.10139,0.45389 -0.022,1.02533 -0.48283,1.24571 l -3.51393,0.0147 c -2.74571,-3.24907 -5.14164,-6.73158 -7.52413,-9.81496 0.56435,0.17163 0.2643,0.27538 -0.13928,0.04 -0.24829,-0.14502 -0.7822,-0.0639 -1.12521,0.0278 -0.14003,0.0375 -0.25617,0.10087 -0.33152,0.19247 z"
       id="path5"
       sodipodi:nodetypes="ccccsccccsscc" /><rect
       style="fill:#fffeff;fill-opacity:1;stroke:#fffeff;stroke-width:1.59659;stroke-linecap:round;stroke-linejoin:round;stroke-opacity:1"
       id="rect5"
       width="8.0473652"
       height="7.9698663"
       x="-100.96645"
       y="240.31757"
       transform="matrix(0.65707587,-0.75382445,0.67631436,0.73661312,0,0)" /><path
       style="fill:#0277fd;fill-opacity:1;stroke:#0277fd;stroke-width:1.22639;stroke-linecap:round;stroke-linejoin:round;stroke-opacity:1"
       d="m 96.763752,242.31332 0.661648,0.0434 0.981439,3.14764 -5.101719,6.59862 -3.4218,0.61931 -1.013359,-2.25439 z"
       id="path7"
       sodipodi:nodetypes="ccccccc" /><path
       style="fill:#0277fd;fill-opacity:1;stroke:#0277fd;stroke-width:1.22639;stroke-linecap:round;stroke-linejoin:round;stroke-opacity:1"
       d="m 100.76547,248.72511 -0.944894,-0.0913 -3.907766,4.54511 5.59067,6.20432 2.42784,-2.7974 z"
       id="path10"
       sodipodi:nodetypes="cccccc" /><path
       style="fill:#fffeff;fill-opacity:1;stroke:#fffeff;stroke-width:1.22639;stroke-linecap:round;stroke-linejoin:round;stroke-opacity:1"
       d="m 108.54127,250.69995 4.10084,-1.13683 1.13804,1.26318 -0.22761,1.3261 -3.89585,-0.0147 z"
       id="path11"
       sodipodi:nodetypes="cccccc" /></g></svg>
